<svg width="48" height="48" viewBox="0 0 48 48" fill="none" xmlns="http://www.w3.org/2000/svg">
<g filter="url(#filter0_d_167_535)">
<path d="M15.6154 0.00961026C9.22115 0.00961026 4 5.22925 4 11.6216V28.4052C4 34.788 9.22115 39.998 15.6154 39.998H32.4038C38.7885 39.998 44 34.7784 44 28.386V11.612C44 5.21964 38.7885 0 32.3942 0H15.6154V0.00961026ZM15.6154 3.08565H32.3942C37.125 3.08565 40.9231 6.88262 40.9231 11.6216V28.3956C40.9231 33.1346 37.125 36.9316 32.4038 36.9316H15.6154C10.875 36.9316 7.07692 33.1346 7.07692 28.4149V11.6312C7.08654 6.88262 10.8846 3.08565 15.6154 3.08565ZM36.3173 6.16168C35.4615 6.16168 34.7788 6.84418 34.7788 7.6997C34.7788 8.55522 35.4615 9.23772 36.3173 9.23772C37.1731 9.23772 37.8558 8.55522 37.8558 7.6997C37.8558 6.84418 37.1731 6.16168 36.3173 6.16168ZM24.0096 9.23772C18.0865 9.23772 13.2404 14.0825 13.2404 20.0038C13.2404 25.9252 18.0865 30.7699 24.0096 30.7699C29.9327 30.7699 34.7788 25.9252 34.7788 20.0038C34.7788 14.0825 29.9327 9.23772 24.0096 9.23772ZM24.0096 12.3137C28.2788 12.3137 31.7019 15.7358 31.7019 20.0038C31.7019 24.2718 28.2788 27.6939 24.0096 27.6939C19.7404 27.6939 16.3173 24.2718 16.3173 20.0038C16.3173 15.7358 19.7404 12.3137 24.0096 12.3137Z" fill="#070707"/>
<path d="M15.6154 0.50961H16.1154V0.5H32.3942C38.5119 0.5 43.5 5.49538 43.5 11.612V28.386C43.5 34.5029 38.5117 39.498 32.4038 39.498H15.6154C9.49635 39.498 4.5 34.5109 4.5 28.4052V11.6216C4.5 5.50553 9.49716 0.50961 15.6154 0.50961ZM6.57692 11.6302V11.6312V28.4149C6.57692 33.4117 10.5997 37.4316 15.6154 37.4316H32.4038C37.4017 37.4316 41.4231 33.4102 41.4231 28.3956V11.6216C41.4231 6.60671 37.4014 2.58565 32.3942 2.58565H15.6154C10.6077 2.58565 6.5871 6.60704 6.57692 11.6302ZM35.2788 7.6997C35.2788 7.12046 35.7375 6.66168 36.3173 6.66168C36.8971 6.66168 37.3558 7.12045 37.3558 7.6997C37.3558 8.27894 36.8971 8.73772 36.3173 8.73772C35.7375 8.73772 35.2788 8.27894 35.2788 7.6997ZM13.7404 20.0038C13.7404 14.3587 18.3625 9.73772 24.0096 9.73772C29.6567 9.73772 34.2788 14.3587 34.2788 20.0038C34.2788 25.6489 29.6567 30.2699 24.0096 30.2699C18.3625 30.2699 13.7404 25.6489 13.7404 20.0038ZM32.2019 20.0038C32.2019 15.4596 28.5549 11.8137 24.0096 11.8137C19.4644 11.8137 15.8173 15.4596 15.8173 20.0038C15.8173 24.5481 19.4644 28.1939 24.0096 28.1939C28.5549 28.1939 32.2019 24.5481 32.2019 20.0038Z" stroke="#070707"/>
</g>
</svg>
